<mxfile host="app.diagrams.net" modified="2021-01-20T03:34:46.187Z" agent="5.0 (Windows NT 6.1; Win64; x64) AppleWebKit/537.36 (KHTML, like Gecko) Chrome/66.0.3359.139 Safari/537.36" etag="BgPDJH9C_KMy4e5Mv0WY" version="14.1.8" type="github">
  <diagram id="sYKwXVKbv2uJBlUBfK5V" name="第 1 页">
    <mxGraphModel dx="1086" dy="554" grid="1" gridSize="10" guides="1" tooltips="1" connect="0" arrows="1" fold="1" page="1" pageScale="1" pageWidth="1600" pageHeight="900" math="0" shadow="0">
      <root>
        <mxCell id="0" />
        <mxCell id="1" parent="0" />
        <mxCell id="cvLDwklnUyzjiHEsLTep-182" value="" style="verticalLabelPosition=bottom;verticalAlign=top;html=1;shape=mxgraph.basic.rect;fillColor2=none;strokeWidth=1;size=20;indent=5;" vertex="1" parent="1">
          <mxGeometry x="990" y="80" width="1430" height="1020" as="geometry" />
        </mxCell>
        <mxCell id="cvLDwklnUyzjiHEsLTep-164" value="" style="aspect=fixed;html=1;points=[];align=center;image;fontSize=12;image=img/lib/mscae/NetworkInterfaceCard.svg;rotation=90;" vertex="1" parent="1">
          <mxGeometry x="762" y="20" width="74" height="84.08" as="geometry" />
        </mxCell>
        <mxCell id="cvLDwklnUyzjiHEsLTep-167" value="理赔" style="rounded=1;whiteSpace=wrap;html=1;fillColor=#d5e8d4;strokeColor=#82b366;" vertex="1" parent="1">
          <mxGeometry x="752" y="30" width="95" height="45" as="geometry" />
        </mxCell>
        <mxCell id="cvLDwklnUyzjiHEsLTep-183" value="" style="verticalLabelPosition=bottom;verticalAlign=top;html=1;shape=mxgraph.basic.rect;fillColor2=none;strokeWidth=1;size=20;indent=5;" vertex="1" parent="1">
          <mxGeometry x="1010" y="190" width="1300" height="840" as="geometry" />
        </mxCell>
        <mxCell id="cvLDwklnUyzjiHEsLTep-184" value="" style="verticalLabelPosition=bottom;verticalAlign=top;html=1;shape=mxgraph.basic.rect;fillColor2=none;strokeWidth=1;size=20;indent=5;" vertex="1" parent="1">
          <mxGeometry x="1040" y="235" width="1210" height="765" as="geometry" />
        </mxCell>
        <mxCell id="cvLDwklnUyzjiHEsLTep-201" value="" style="points=[[0,0],[0.25,0],[0.5,0],[0.75,0],[1,0],[1,0.25],[1,0.5],[1,0.75],[1,1],[0.75,1],[0.5,1],[0.25,1],[0,1],[0,0.75],[0,0.5],[0,0.25]];outlineConnect=0;gradientColor=none;html=1;whiteSpace=wrap;fontSize=12;fontStyle=0;shape=mxgraph.aws4.group;grIcon=mxgraph.aws4.group_ec2_instance_contents;strokeColor=#D86613;fillColor=none;verticalAlign=top;align=center;spacingLeft=30;fontColor=#D86613;dashed=0;rotation=90;" vertex="1" parent="1">
          <mxGeometry x="2090" y="297" width="220" height="100" as="geometry" />
        </mxCell>
        <mxCell id="cvLDwklnUyzjiHEsLTep-208" value="" style="group" vertex="1" connectable="0" parent="1">
          <mxGeometry x="2160" y="250" width="60" height="60" as="geometry" />
        </mxCell>
        <mxCell id="cvLDwklnUyzjiHEsLTep-209" value="" style="outlineConnect=0;fontColor=#232F3E;gradientColor=none;fillColor=#D86613;strokeColor=none;dashed=0;verticalLabelPosition=bottom;verticalAlign=top;align=center;html=1;fontSize=12;fontStyle=0;aspect=fixed;pointerEvents=1;shape=mxgraph.aws4.instance2;labelBackgroundColor=none;" vertex="1" parent="cvLDwklnUyzjiHEsLTep-208">
          <mxGeometry width="60" height="60" as="geometry" />
        </mxCell>
        <mxCell id="cvLDwklnUyzjiHEsLTep-210" value="网销" style="whiteSpace=wrap;html=1;labelBackgroundColor=none;fontFamily=Comic Sans MS;fillColor=#ffe6cc;strokeColor=#d79b00;" vertex="1" parent="cvLDwklnUyzjiHEsLTep-208">
          <mxGeometry x="10" y="10" width="40" height="40" as="geometry" />
        </mxCell>
        <mxCell id="cvLDwklnUyzjiHEsLTep-213" value="&lt;b&gt;&lt;font style=&quot;font-size: 17px&quot;&gt;销售支持融合平台&lt;/font&gt;&lt;/b&gt;" style="points=[[0,0],[0.25,0],[0.5,0],[0.75,0],[1,0],[1,0.25],[1,0.5],[1,0.75],[1,1],[0.75,1],[0.5,1],[0.25,1],[0,1],[0,0.75],[0,0.5],[0,0.25]];outlineConnect=0;gradientColor=none;html=1;whiteSpace=wrap;fontSize=12;fontStyle=0;shape=mxgraph.aws4.group;grIcon=mxgraph.aws4.group_ec2_instance_contents;strokeColor=#D86613;fillColor=none;verticalAlign=top;align=center;spacingLeft=30;fontColor=#D86613;dashed=0;rotation=90;" vertex="1" parent="1">
          <mxGeometry x="2134" y="891" width="130" height="100" as="geometry" />
        </mxCell>
        <mxCell id="cvLDwklnUyzjiHEsLTep-214" value="" style="group" vertex="1" connectable="0" parent="1">
          <mxGeometry x="2147" y="943.5" width="60" height="55" as="geometry" />
        </mxCell>
        <mxCell id="cvLDwklnUyzjiHEsLTep-215" value="" style="outlineConnect=0;fontColor=#232F3E;gradientColor=none;fillColor=#D86613;strokeColor=none;dashed=0;verticalLabelPosition=bottom;verticalAlign=top;align=center;html=1;fontSize=12;fontStyle=0;aspect=fixed;pointerEvents=1;shape=mxgraph.aws4.instance2;labelBackgroundColor=none;" vertex="1" parent="cvLDwklnUyzjiHEsLTep-214">
          <mxGeometry width="60" height="55" as="geometry" />
        </mxCell>
        <mxCell id="cvLDwklnUyzjiHEsLTep-216" value="中介&lt;br&gt;自营" style="whiteSpace=wrap;html=1;labelBackgroundColor=none;fontFamily=Comic Sans MS;fillColor=#ffe6cc;strokeColor=#d79b00;" vertex="1" parent="cvLDwklnUyzjiHEsLTep-214">
          <mxGeometry x="10" y="10" width="40" height="35" as="geometry" />
        </mxCell>
        <mxCell id="cvLDwklnUyzjiHEsLTep-217" value="" style="group" vertex="1" connectable="0" parent="1">
          <mxGeometry x="2148" y="881" width="60" height="55" as="geometry" />
        </mxCell>
        <mxCell id="cvLDwklnUyzjiHEsLTep-218" value="" style="outlineConnect=0;fontColor=#232F3E;gradientColor=none;fillColor=#D86613;strokeColor=none;dashed=0;verticalLabelPosition=bottom;verticalAlign=top;align=center;html=1;fontSize=12;fontStyle=0;aspect=fixed;pointerEvents=1;shape=mxgraph.aws4.instance2;labelBackgroundColor=none;" vertex="1" parent="cvLDwklnUyzjiHEsLTep-217">
          <mxGeometry width="60" height="55" as="geometry" />
        </mxCell>
        <mxCell id="cvLDwklnUyzjiHEsLTep-219" value="销售&lt;br&gt;支持" style="whiteSpace=wrap;html=1;labelBackgroundColor=none;fontFamily=Comic Sans MS;fillColor=#ffe6cc;strokeColor=#d79b00;" vertex="1" parent="cvLDwklnUyzjiHEsLTep-217">
          <mxGeometry x="10" y="10" width="40" height="35" as="geometry" />
        </mxCell>
        <mxCell id="cvLDwklnUyzjiHEsLTep-227" value="&lt;b&gt;&lt;font style=&quot;font-size: 17px&quot;&gt;自营业务生态平台&lt;/font&gt;&lt;/b&gt;" style="points=[[0,0],[0.25,0],[0.5,0],[0.75,0],[1,0],[1,0.25],[1,0.5],[1,0.75],[1,1],[0.75,1],[0.5,1],[0.25,1],[0,1],[0,0.75],[0,0.5],[0,0.25]];outlineConnect=0;gradientColor=none;html=1;whiteSpace=wrap;fontSize=12;fontStyle=0;shape=mxgraph.aws4.group;grIcon=mxgraph.aws4.group_ec2_instance_contents;strokeColor=#D86613;fillColor=none;verticalAlign=top;align=center;spacingLeft=30;fontColor=#D86613;dashed=0;rotation=90;" vertex="1" parent="1">
          <mxGeometry x="2130" y="750" width="140" height="100" as="geometry" />
        </mxCell>
        <mxCell id="cvLDwklnUyzjiHEsLTep-228" value="" style="group" vertex="1" connectable="0" parent="1">
          <mxGeometry x="2151" y="740" width="60" height="60" as="geometry" />
        </mxCell>
        <mxCell id="cvLDwklnUyzjiHEsLTep-229" value="" style="outlineConnect=0;fontColor=#232F3E;gradientColor=none;fillColor=#D86613;strokeColor=none;dashed=0;verticalLabelPosition=bottom;verticalAlign=top;align=center;html=1;fontSize=12;fontStyle=0;aspect=fixed;pointerEvents=1;shape=mxgraph.aws4.instance2;labelBackgroundColor=none;" vertex="1" parent="cvLDwklnUyzjiHEsLTep-228">
          <mxGeometry width="60" height="60" as="geometry" />
        </mxCell>
        <mxCell id="cvLDwklnUyzjiHEsLTep-230" value="网销&lt;br&gt;自营" style="whiteSpace=wrap;html=1;labelBackgroundColor=none;fontFamily=Comic Sans MS;fillColor=#ffe6cc;strokeColor=#d79b00;" vertex="1" parent="cvLDwklnUyzjiHEsLTep-228">
          <mxGeometry x="10" y="10" width="40" height="40" as="geometry" />
        </mxCell>
        <mxCell id="cvLDwklnUyzjiHEsLTep-231" value="" style="group" vertex="1" connectable="0" parent="1">
          <mxGeometry x="2152" y="807" width="60" height="60" as="geometry" />
        </mxCell>
        <mxCell id="cvLDwklnUyzjiHEsLTep-232" value="" style="outlineConnect=0;fontColor=#232F3E;gradientColor=none;fillColor=#D86613;strokeColor=none;dashed=0;verticalLabelPosition=bottom;verticalAlign=top;align=center;html=1;fontSize=12;fontStyle=0;aspect=fixed;pointerEvents=1;shape=mxgraph.aws4.instance2;labelBackgroundColor=none;" vertex="1" parent="cvLDwklnUyzjiHEsLTep-231">
          <mxGeometry width="60" height="60" as="geometry" />
        </mxCell>
        <mxCell id="cvLDwklnUyzjiHEsLTep-233" value="网销&lt;br&gt;商城" style="whiteSpace=wrap;html=1;labelBackgroundColor=none;fontFamily=Comic Sans MS;fillColor=#d5e8d4;strokeColor=#82b366;" vertex="1" parent="cvLDwklnUyzjiHEsLTep-231">
          <mxGeometry x="10" y="10" width="40" height="40" as="geometry" />
        </mxCell>
        <mxCell id="cvLDwklnUyzjiHEsLTep-234" value="&lt;b&gt;&lt;font style=&quot;font-size: 17px&quot;&gt;核心业财支持后台&lt;/font&gt;&lt;/b&gt;" style="points=[[0,0],[0.25,0],[0.5,0],[0.75,0],[1,0],[1,0.25],[1,0.5],[1,0.75],[1,1],[0.75,1],[0.5,1],[0.25,1],[0,1],[0,0.75],[0,0.5],[0,0.25]];outlineConnect=0;gradientColor=none;html=1;whiteSpace=wrap;fontSize=12;fontStyle=0;shape=mxgraph.aws4.group;grIcon=mxgraph.aws4.group_ec2_instance_contents;strokeColor=#D86613;fillColor=none;verticalAlign=top;align=center;spacingLeft=30;fontColor=#D86613;dashed=0;rotation=90;" vertex="1" parent="1">
          <mxGeometry x="2070" y="544.5" width="261" height="100" as="geometry" />
        </mxCell>
        <mxCell id="cvLDwklnUyzjiHEsLTep-235" value="&lt;b&gt;&lt;font style=&quot;font-size: 17px&quot;&gt;客户服务智能平台&lt;/font&gt;&lt;/b&gt;" style="points=[[0,0],[0.25,0],[0.5,0],[0.75,0],[1,0],[1,0.25],[1,0.5],[1,0.75],[1,1],[0.75,1],[0.5,1],[0.25,1],[0,1],[0,0.75],[0,0.5],[0,0.25]];outlineConnect=0;gradientColor=none;html=1;whiteSpace=wrap;fontSize=12;fontStyle=0;shape=mxgraph.aws4.group;grIcon=mxgraph.aws4.group_ec2_instance_contents;strokeColor=#D86613;fillColor=none;verticalAlign=top;align=center;spacingLeft=30;fontColor=#D86613;dashed=0;" vertex="1" parent="1">
          <mxGeometry x="1330.5" y="380.5" width="261" height="139" as="geometry" />
        </mxCell>
        <mxCell id="cvLDwklnUyzjiHEsLTep-236" value="&lt;b&gt;&lt;font style=&quot;font-size: 17px&quot;&gt;企业数据分析中台&lt;/font&gt;&lt;/b&gt;" style="points=[[0,0],[0.25,0],[0.5,0],[0.75,0],[1,0],[1,0.25],[1,0.5],[1,0.75],[1,1],[0.75,1],[0.5,1],[0.25,1],[0,1],[0,0.75],[0,0.5],[0,0.25]];outlineConnect=0;gradientColor=none;html=1;whiteSpace=wrap;fontSize=12;fontStyle=0;shape=mxgraph.aws4.group;grIcon=mxgraph.aws4.group_ec2_instance_contents;strokeColor=#D86613;fillColor=none;verticalAlign=top;align=center;spacingLeft=30;fontColor=#D86613;dashed=0;" vertex="1" parent="1">
          <mxGeometry x="1610.5" y="380.5" width="261" height="139" as="geometry" />
        </mxCell>
        <mxCell id="cvLDwklnUyzjiHEsLTep-237" value="" style="group" vertex="1" connectable="0" parent="1">
          <mxGeometry x="2160" y="470" width="60" height="60" as="geometry" />
        </mxCell>
        <mxCell id="cvLDwklnUyzjiHEsLTep-238" value="" style="outlineConnect=0;fontColor=#232F3E;gradientColor=none;fillColor=#D86613;strokeColor=none;dashed=0;verticalLabelPosition=bottom;verticalAlign=top;align=center;html=1;fontSize=12;fontStyle=0;aspect=fixed;pointerEvents=1;shape=mxgraph.aws4.instance2;labelBackgroundColor=none;" vertex="1" parent="cvLDwklnUyzjiHEsLTep-237">
          <mxGeometry width="60" height="60" as="geometry" />
        </mxCell>
        <mxCell id="cvLDwklnUyzjiHEsLTep-239" value="核心&lt;br&gt;系统" style="whiteSpace=wrap;html=1;labelBackgroundColor=none;fontFamily=Comic Sans MS;fillColor=#ffe6cc;strokeColor=#d79b00;" vertex="1" parent="cvLDwklnUyzjiHEsLTep-237">
          <mxGeometry x="10" y="10" width="40" height="40" as="geometry" />
        </mxCell>
        <mxCell id="cvLDwklnUyzjiHEsLTep-240" value="" style="group" vertex="1" connectable="0" parent="1">
          <mxGeometry x="2160" y="533.5" width="60" height="60" as="geometry" />
        </mxCell>
        <mxCell id="cvLDwklnUyzjiHEsLTep-241" value="" style="outlineConnect=0;fontColor=#232F3E;gradientColor=none;fillColor=#D86613;strokeColor=none;dashed=0;verticalLabelPosition=bottom;verticalAlign=top;align=center;html=1;fontSize=12;fontStyle=0;aspect=fixed;pointerEvents=1;shape=mxgraph.aws4.instance2;labelBackgroundColor=none;" vertex="1" parent="cvLDwklnUyzjiHEsLTep-240">
          <mxGeometry width="60" height="60" as="geometry" />
        </mxCell>
        <mxCell id="cvLDwklnUyzjiHEsLTep-242" value="财务&lt;br&gt;系统" style="whiteSpace=wrap;html=1;labelBackgroundColor=none;fontFamily=Comic Sans MS;fillColor=#ffe6cc;strokeColor=#d79b00;" vertex="1" parent="cvLDwklnUyzjiHEsLTep-240">
          <mxGeometry x="10" y="10" width="40" height="40" as="geometry" />
        </mxCell>
        <mxCell id="cvLDwklnUyzjiHEsLTep-243" value="" style="group" vertex="1" connectable="0" parent="1">
          <mxGeometry x="1330.5" y="429.5" width="60" height="60" as="geometry" />
        </mxCell>
        <mxCell id="cvLDwklnUyzjiHEsLTep-244" value="" style="outlineConnect=0;fontColor=#232F3E;gradientColor=none;fillColor=#D86613;strokeColor=none;dashed=0;verticalLabelPosition=bottom;verticalAlign=top;align=center;html=1;fontSize=12;fontStyle=0;aspect=fixed;pointerEvents=1;shape=mxgraph.aws4.instance2;labelBackgroundColor=none;" vertex="1" parent="cvLDwklnUyzjiHEsLTep-243">
          <mxGeometry width="60" height="60" as="geometry" />
        </mxCell>
        <mxCell id="cvLDwklnUyzjiHEsLTep-245" value="多媒体" style="whiteSpace=wrap;html=1;labelBackgroundColor=none;fontFamily=Comic Sans MS;fillColor=#ffe6cc;strokeColor=#d79b00;" vertex="1" parent="cvLDwklnUyzjiHEsLTep-243">
          <mxGeometry x="10" y="10" width="40" height="40" as="geometry" />
        </mxCell>
        <mxCell id="cvLDwklnUyzjiHEsLTep-246" value="" style="group" vertex="1" connectable="0" parent="1">
          <mxGeometry x="1396.5" y="429.5" width="60" height="60" as="geometry" />
        </mxCell>
        <mxCell id="cvLDwklnUyzjiHEsLTep-247" value="" style="outlineConnect=0;fontColor=#232F3E;gradientColor=none;fillColor=#D86613;strokeColor=none;dashed=0;verticalLabelPosition=bottom;verticalAlign=top;align=center;html=1;fontSize=12;fontStyle=0;aspect=fixed;pointerEvents=1;shape=mxgraph.aws4.instance2;labelBackgroundColor=none;" vertex="1" parent="cvLDwklnUyzjiHEsLTep-246">
          <mxGeometry width="60" height="60" as="geometry" />
        </mxCell>
        <mxCell id="cvLDwklnUyzjiHEsLTep-248" value="电话&lt;br&gt;中心" style="whiteSpace=wrap;html=1;labelBackgroundColor=none;fontFamily=Comic Sans MS;fillColor=#ffe6cc;strokeColor=#d79b00;" vertex="1" parent="cvLDwklnUyzjiHEsLTep-246">
          <mxGeometry x="10" y="10" width="40" height="40" as="geometry" />
        </mxCell>
        <mxCell id="cvLDwklnUyzjiHEsLTep-249" value="" style="group" vertex="1" connectable="0" parent="1">
          <mxGeometry x="1465.5" y="429.5" width="60" height="60" as="geometry" />
        </mxCell>
        <mxCell id="cvLDwklnUyzjiHEsLTep-250" value="" style="outlineConnect=0;fontColor=#232F3E;gradientColor=none;fillColor=#D86613;strokeColor=none;dashed=0;verticalLabelPosition=bottom;verticalAlign=top;align=center;html=1;fontSize=12;fontStyle=0;aspect=fixed;pointerEvents=1;shape=mxgraph.aws4.instance2;labelBackgroundColor=none;" vertex="1" parent="cvLDwklnUyzjiHEsLTep-249">
          <mxGeometry width="60" height="60" as="geometry" />
        </mxCell>
        <mxCell id="cvLDwklnUyzjiHEsLTep-251" value="微信&lt;br&gt;客服&lt;br&gt;" style="whiteSpace=wrap;html=1;labelBackgroundColor=none;fontFamily=Comic Sans MS;fillColor=#ffe6cc;strokeColor=#d79b00;" vertex="1" parent="cvLDwklnUyzjiHEsLTep-249">
          <mxGeometry x="10" y="10" width="40" height="40" as="geometry" />
        </mxCell>
        <mxCell id="cvLDwklnUyzjiHEsLTep-252" value="" style="group" vertex="1" connectable="0" parent="1">
          <mxGeometry x="1531.5" y="429.5" width="60" height="60" as="geometry" />
        </mxCell>
        <mxCell id="cvLDwklnUyzjiHEsLTep-253" value="" style="outlineConnect=0;fontColor=#232F3E;gradientColor=none;fillColor=#D86613;strokeColor=none;dashed=0;verticalLabelPosition=bottom;verticalAlign=top;align=center;html=1;fontSize=12;fontStyle=0;aspect=fixed;pointerEvents=1;shape=mxgraph.aws4.instance2;labelBackgroundColor=none;" vertex="1" parent="cvLDwklnUyzjiHEsLTep-252">
          <mxGeometry width="60" height="60" as="geometry" />
        </mxCell>
        <mxCell id="cvLDwklnUyzjiHEsLTep-254" value="门户&lt;br&gt;网站" style="whiteSpace=wrap;html=1;labelBackgroundColor=none;fontFamily=Comic Sans MS;fillColor=#ffe6cc;strokeColor=#d79b00;" vertex="1" parent="cvLDwklnUyzjiHEsLTep-252">
          <mxGeometry x="9" y="10" width="40" height="40" as="geometry" />
        </mxCell>
        <mxCell id="cvLDwklnUyzjiHEsLTep-255" value="" style="group" vertex="1" connectable="0" parent="1">
          <mxGeometry x="1630.5" y="429.5" width="60" height="60" as="geometry" />
        </mxCell>
        <mxCell id="cvLDwklnUyzjiHEsLTep-256" value="" style="outlineConnect=0;fontColor=#232F3E;gradientColor=none;fillColor=#D86613;strokeColor=none;dashed=0;verticalLabelPosition=bottom;verticalAlign=top;align=center;html=1;fontSize=12;fontStyle=0;aspect=fixed;pointerEvents=1;shape=mxgraph.aws4.instance2;labelBackgroundColor=none;" vertex="1" parent="cvLDwklnUyzjiHEsLTep-255">
          <mxGeometry width="60" height="60" as="geometry" />
        </mxCell>
        <mxCell id="cvLDwklnUyzjiHEsLTep-257" value="智能&lt;br&gt;报表" style="whiteSpace=wrap;html=1;labelBackgroundColor=none;fontFamily=Comic Sans MS;fillColor=#ffe6cc;strokeColor=#d79b00;" vertex="1" parent="cvLDwklnUyzjiHEsLTep-255">
          <mxGeometry x="10" y="10" width="40" height="40" as="geometry" />
        </mxCell>
        <mxCell id="cvLDwklnUyzjiHEsLTep-258" value="" style="group" vertex="1" connectable="0" parent="1">
          <mxGeometry x="1710.5" y="429.5" width="60" height="60" as="geometry" />
        </mxCell>
        <mxCell id="cvLDwklnUyzjiHEsLTep-259" value="" style="outlineConnect=0;fontColor=#232F3E;gradientColor=none;fillColor=#D86613;strokeColor=none;dashed=0;verticalLabelPosition=bottom;verticalAlign=top;align=center;html=1;fontSize=12;fontStyle=0;aspect=fixed;pointerEvents=1;shape=mxgraph.aws4.instance2;labelBackgroundColor=none;" vertex="1" parent="cvLDwklnUyzjiHEsLTep-258">
          <mxGeometry width="60" height="60" as="geometry" />
        </mxCell>
        <mxCell id="cvLDwklnUyzjiHEsLTep-260" value="数据&lt;br&gt;平台" style="whiteSpace=wrap;html=1;labelBackgroundColor=none;fontFamily=Comic Sans MS;fillColor=#ffe6cc;strokeColor=#d79b00;" vertex="1" parent="cvLDwklnUyzjiHEsLTep-258">
          <mxGeometry x="10" y="10" width="40" height="40" as="geometry" />
        </mxCell>
        <mxCell id="cvLDwklnUyzjiHEsLTep-261" value="" style="group" vertex="1" connectable="0" parent="1">
          <mxGeometry x="2160" y="598.5" width="60" height="60" as="geometry" />
        </mxCell>
        <mxCell id="cvLDwklnUyzjiHEsLTep-262" value="" style="outlineConnect=0;fontColor=#232F3E;gradientColor=none;fillColor=#D86613;strokeColor=none;dashed=0;verticalLabelPosition=bottom;verticalAlign=top;align=center;html=1;fontSize=12;fontStyle=0;aspect=fixed;pointerEvents=1;shape=mxgraph.aws4.instance2;labelBackgroundColor=none;" vertex="1" parent="cvLDwklnUyzjiHEsLTep-261">
          <mxGeometry width="60" height="60" as="geometry" />
        </mxCell>
        <mxCell id="cvLDwklnUyzjiHEsLTep-263" value="产品支持后台" style="whiteSpace=wrap;html=1;labelBackgroundColor=none;fontFamily=Comic Sans MS;fillColor=#d5e8d4;strokeColor=#82b366;" vertex="1" parent="cvLDwklnUyzjiHEsLTep-261">
          <mxGeometry x="10" y="10" width="40" height="40" as="geometry" />
        </mxCell>
        <mxCell id="cvLDwklnUyzjiHEsLTep-264" value="" style="group" vertex="1" connectable="0" parent="1">
          <mxGeometry x="2160" y="663.5" width="60" height="60" as="geometry" />
        </mxCell>
        <mxCell id="cvLDwklnUyzjiHEsLTep-265" value="" style="outlineConnect=0;fontColor=#232F3E;gradientColor=none;fillColor=#D86613;strokeColor=none;dashed=0;verticalLabelPosition=bottom;verticalAlign=top;align=center;html=1;fontSize=12;fontStyle=0;aspect=fixed;pointerEvents=1;shape=mxgraph.aws4.instance2;labelBackgroundColor=none;" vertex="1" parent="cvLDwklnUyzjiHEsLTep-264">
          <mxGeometry width="60" height="60" as="geometry" />
        </mxCell>
        <mxCell id="cvLDwklnUyzjiHEsLTep-266" value="规则支持后台" style="whiteSpace=wrap;html=1;labelBackgroundColor=none;fontFamily=Comic Sans MS;fillColor=#d5e8d4;strokeColor=#82b366;" vertex="1" parent="cvLDwklnUyzjiHEsLTep-264">
          <mxGeometry x="10" y="10" width="40" height="40" as="geometry" />
        </mxCell>
        <mxCell id="cvLDwklnUyzjiHEsLTep-267" value="" style="group" vertex="1" connectable="0" parent="1">
          <mxGeometry x="1790.5" y="429.5" width="60" height="60" as="geometry" />
        </mxCell>
        <mxCell id="cvLDwklnUyzjiHEsLTep-268" value="" style="outlineConnect=0;fontColor=#232F3E;gradientColor=none;fillColor=#D86613;strokeColor=none;dashed=0;verticalLabelPosition=bottom;verticalAlign=top;align=center;html=1;fontSize=12;fontStyle=0;aspect=fixed;pointerEvents=1;shape=mxgraph.aws4.instance2;labelBackgroundColor=none;" vertex="1" parent="cvLDwklnUyzjiHEsLTep-267">
          <mxGeometry width="60" height="60" as="geometry" />
        </mxCell>
        <mxCell id="cvLDwklnUyzjiHEsLTep-269" value="大数据&lt;br&gt;平台" style="whiteSpace=wrap;html=1;labelBackgroundColor=none;fontFamily=Comic Sans MS;fillColor=#d5e8d4;strokeColor=#82b366;" vertex="1" parent="cvLDwklnUyzjiHEsLTep-267">
          <mxGeometry x="10" y="10" width="40" height="40" as="geometry" />
        </mxCell>
        <mxCell id="cvLDwklnUyzjiHEsLTep-270" value="&lt;b&gt;&lt;font style=&quot;font-size: 17px&quot;&gt;监管数据报送平台&lt;/font&gt;&lt;/b&gt;" style="points=[[0,0],[0.25,0],[0.5,0],[0.75,0],[1,0],[1,0.25],[1,0.5],[1,0.75],[1,1],[0.75,1],[0.5,1],[0.25,1],[0,1],[0,0.75],[0,0.5],[0,0.25]];outlineConnect=0;gradientColor=none;html=1;whiteSpace=wrap;fontSize=12;fontStyle=0;shape=mxgraph.aws4.group;grIcon=mxgraph.aws4.group_ec2_instance_contents;strokeColor=#D86613;fillColor=none;verticalAlign=top;align=center;spacingLeft=30;fontColor=#D86613;dashed=0;" vertex="1" parent="1">
          <mxGeometry x="1050" y="570" width="210.5" height="140" as="geometry" />
        </mxCell>
        <mxCell id="cvLDwklnUyzjiHEsLTep-271" value="&lt;b&gt;&lt;font style=&quot;font-size: 17px&quot;&gt;企业作业协同平台&lt;/font&gt;&lt;/b&gt;" style="points=[[0,0],[0.25,0],[0.5,0],[0.75,0],[1,0],[1,0.25],[1,0.5],[1,0.75],[1,1],[0.75,1],[0.5,1],[0.25,1],[0,1],[0,0.75],[0,0.5],[0,0.25]];outlineConnect=0;gradientColor=none;html=1;whiteSpace=wrap;fontSize=12;fontStyle=0;shape=mxgraph.aws4.group;grIcon=mxgraph.aws4.group_ec2_instance_contents;strokeColor=#D86613;fillColor=none;verticalAlign=top;align=center;spacingLeft=30;fontColor=#D86613;dashed=0;" vertex="1" parent="1">
          <mxGeometry x="1270.5" y="571" width="261" height="139" as="geometry" />
        </mxCell>
        <mxCell id="cvLDwklnUyzjiHEsLTep-272" value="&lt;b&gt;&lt;font style=&quot;font-size: 17px&quot;&gt;企业投资管理平台&lt;/font&gt;&lt;/b&gt;" style="points=[[0,0],[0.25,0],[0.5,0],[0.75,0],[1,0],[1,0.25],[1,0.5],[1,0.75],[1,1],[0.75,1],[0.5,1],[0.25,1],[0,1],[0,0.75],[0,0.5],[0,0.25]];outlineConnect=0;gradientColor=none;html=1;whiteSpace=wrap;fontSize=12;fontStyle=0;shape=mxgraph.aws4.group;grIcon=mxgraph.aws4.group_ec2_instance_contents;strokeColor=#D86613;fillColor=none;verticalAlign=top;align=center;spacingLeft=30;fontColor=#D86613;dashed=0;" vertex="1" parent="1">
          <mxGeometry x="1542.5" y="571" width="146" height="139" as="geometry" />
        </mxCell>
        <mxCell id="cvLDwklnUyzjiHEsLTep-273" value="&lt;b&gt;&lt;font style=&quot;font-size: 17px&quot;&gt;企业风险管理平台&lt;/font&gt;&lt;/b&gt;" style="points=[[0,0],[0.25,0],[0.5,0],[0.75,0],[1,0],[1,0.25],[1,0.5],[1,0.75],[1,1],[0.75,1],[0.5,1],[0.25,1],[0,1],[0,0.75],[0,0.5],[0,0.25]];outlineConnect=0;gradientColor=none;html=1;whiteSpace=wrap;fontSize=12;fontStyle=0;shape=mxgraph.aws4.group;grIcon=mxgraph.aws4.group_ec2_instance_contents;strokeColor=#D86613;fillColor=none;verticalAlign=top;align=center;spacingLeft=30;fontColor=#D86613;dashed=0;" vertex="1" parent="1">
          <mxGeometry x="1699.5" y="571" width="170" height="139" as="geometry" />
        </mxCell>
        <mxCell id="cvLDwklnUyzjiHEsLTep-274" value="" style="group" vertex="1" connectable="0" parent="1">
          <mxGeometry x="1050.5" y="650" width="60" height="60" as="geometry" />
        </mxCell>
        <mxCell id="cvLDwklnUyzjiHEsLTep-275" value="" style="outlineConnect=0;fontColor=#232F3E;gradientColor=none;fillColor=#D86613;strokeColor=none;dashed=0;verticalLabelPosition=bottom;verticalAlign=top;align=center;html=1;fontSize=12;fontStyle=0;aspect=fixed;pointerEvents=1;shape=mxgraph.aws4.instance2;labelBackgroundColor=none;" vertex="1" parent="cvLDwklnUyzjiHEsLTep-274">
          <mxGeometry width="60" height="60" as="geometry" />
        </mxCell>
        <mxCell id="cvLDwklnUyzjiHEsLTep-276" value="保监&lt;br&gt;上报" style="whiteSpace=wrap;html=1;labelBackgroundColor=none;fontFamily=Comic Sans MS;fillColor=#ffe6cc;strokeColor=#d79b00;" vertex="1" parent="cvLDwklnUyzjiHEsLTep-274">
          <mxGeometry x="10" y="10" width="40" height="40" as="geometry" />
        </mxCell>
        <mxCell id="cvLDwklnUyzjiHEsLTep-277" value="" style="group" vertex="1" connectable="0" parent="1">
          <mxGeometry x="1120.5" y="650" width="60" height="60" as="geometry" />
        </mxCell>
        <mxCell id="cvLDwklnUyzjiHEsLTep-278" value="" style="outlineConnect=0;fontColor=#232F3E;gradientColor=none;fillColor=#D86613;strokeColor=none;dashed=0;verticalLabelPosition=bottom;verticalAlign=top;align=center;html=1;fontSize=12;fontStyle=0;aspect=fixed;pointerEvents=1;shape=mxgraph.aws4.instance2;labelBackgroundColor=none;" vertex="1" parent="cvLDwklnUyzjiHEsLTep-277">
          <mxGeometry width="60" height="60" as="geometry" />
        </mxCell>
        <mxCell id="cvLDwklnUyzjiHEsLTep-279" value="稽核&lt;br&gt;上报" style="whiteSpace=wrap;html=1;labelBackgroundColor=none;fontFamily=Comic Sans MS;fillColor=#ffe6cc;strokeColor=#d79b00;" vertex="1" parent="cvLDwklnUyzjiHEsLTep-277">
          <mxGeometry x="10" y="10" width="40" height="40" as="geometry" />
        </mxCell>
        <mxCell id="cvLDwklnUyzjiHEsLTep-280" value="" style="group" vertex="1" connectable="0" parent="1">
          <mxGeometry x="1190.5" y="650" width="60" height="60" as="geometry" />
        </mxCell>
        <mxCell id="cvLDwklnUyzjiHEsLTep-281" value="" style="outlineConnect=0;fontColor=#232F3E;gradientColor=none;fillColor=#D86613;strokeColor=none;dashed=0;verticalLabelPosition=bottom;verticalAlign=top;align=center;html=1;fontSize=12;fontStyle=0;aspect=fixed;pointerEvents=1;shape=mxgraph.aws4.instance2;labelBackgroundColor=none;" vertex="1" parent="cvLDwklnUyzjiHEsLTep-280">
          <mxGeometry width="60" height="60" as="geometry" />
        </mxCell>
        <mxCell id="cvLDwklnUyzjiHEsLTep-282" value="保单&lt;br&gt;登记" style="whiteSpace=wrap;html=1;labelBackgroundColor=none;fontFamily=Comic Sans MS;fillColor=#ffe6cc;strokeColor=#d79b00;" vertex="1" parent="cvLDwklnUyzjiHEsLTep-280">
          <mxGeometry x="10" y="10" width="40" height="40" as="geometry" />
        </mxCell>
        <mxCell id="cvLDwklnUyzjiHEsLTep-283" value="" style="group" vertex="1" connectable="0" parent="1">
          <mxGeometry x="1085.5" y="595" width="60" height="60" as="geometry" />
        </mxCell>
        <mxCell id="cvLDwklnUyzjiHEsLTep-284" value="" style="outlineConnect=0;fontColor=#232F3E;gradientColor=none;fillColor=#D86613;strokeColor=none;dashed=0;verticalLabelPosition=bottom;verticalAlign=top;align=center;html=1;fontSize=12;fontStyle=0;aspect=fixed;pointerEvents=1;shape=mxgraph.aws4.instance2;labelBackgroundColor=none;" vertex="1" parent="cvLDwklnUyzjiHEsLTep-283">
          <mxGeometry width="60" height="60" as="geometry" />
        </mxCell>
        <mxCell id="cvLDwklnUyzjiHEsLTep-285" value="双录" style="whiteSpace=wrap;html=1;labelBackgroundColor=none;fontFamily=Comic Sans MS;fillColor=#ffe6cc;strokeColor=#d79b00;" vertex="1" parent="cvLDwklnUyzjiHEsLTep-283">
          <mxGeometry x="10" y="10" width="40" height="40" as="geometry" />
        </mxCell>
        <mxCell id="cvLDwklnUyzjiHEsLTep-286" value="" style="group" vertex="1" connectable="0" parent="1">
          <mxGeometry x="1155.5" y="595" width="60" height="60" as="geometry" />
        </mxCell>
        <mxCell id="cvLDwklnUyzjiHEsLTep-287" value="" style="outlineConnect=0;fontColor=#232F3E;gradientColor=none;fillColor=#D86613;strokeColor=none;dashed=0;verticalLabelPosition=bottom;verticalAlign=top;align=center;html=1;fontSize=12;fontStyle=0;aspect=fixed;pointerEvents=1;shape=mxgraph.aws4.instance2;labelBackgroundColor=none;" vertex="1" parent="cvLDwklnUyzjiHEsLTep-286">
          <mxGeometry width="60" height="60" as="geometry" />
        </mxCell>
        <mxCell id="cvLDwklnUyzjiHEsLTep-288" value="偿付能力上报" style="whiteSpace=wrap;html=1;labelBackgroundColor=none;fontFamily=Comic Sans MS;fillColor=#ffe6cc;strokeColor=#d79b00;align=center;" vertex="1" parent="cvLDwklnUyzjiHEsLTep-286">
          <mxGeometry x="10" y="10" width="40" height="40" as="geometry" />
        </mxCell>
        <mxCell id="cvLDwklnUyzjiHEsLTep-289" value="" style="group" vertex="1" connectable="0" parent="1">
          <mxGeometry x="1270.5" y="610" width="60" height="60" as="geometry" />
        </mxCell>
        <mxCell id="cvLDwklnUyzjiHEsLTep-290" value="" style="outlineConnect=0;fontColor=#232F3E;gradientColor=none;fillColor=#D86613;strokeColor=none;dashed=0;verticalLabelPosition=bottom;verticalAlign=top;align=center;html=1;fontSize=12;fontStyle=0;aspect=fixed;pointerEvents=1;shape=mxgraph.aws4.instance2;labelBackgroundColor=none;" vertex="1" parent="cvLDwklnUyzjiHEsLTep-289">
          <mxGeometry width="60" height="60" as="geometry" />
        </mxCell>
        <mxCell id="cvLDwklnUyzjiHEsLTep-291" value="KK" style="whiteSpace=wrap;html=1;labelBackgroundColor=none;fontFamily=Comic Sans MS;fillColor=#ffe6cc;strokeColor=#d79b00;align=center;" vertex="1" parent="cvLDwklnUyzjiHEsLTep-289">
          <mxGeometry x="10" y="10" width="40" height="40" as="geometry" />
        </mxCell>
        <mxCell id="cvLDwklnUyzjiHEsLTep-292" value="" style="group" vertex="1" connectable="0" parent="1">
          <mxGeometry x="1335.5" y="610" width="60" height="60" as="geometry" />
        </mxCell>
        <mxCell id="cvLDwklnUyzjiHEsLTep-293" value="" style="outlineConnect=0;fontColor=#232F3E;gradientColor=none;fillColor=#D86613;strokeColor=none;dashed=0;verticalLabelPosition=bottom;verticalAlign=top;align=center;html=1;fontSize=12;fontStyle=0;aspect=fixed;pointerEvents=1;shape=mxgraph.aws4.instance2;labelBackgroundColor=none;" vertex="1" parent="cvLDwklnUyzjiHEsLTep-292">
          <mxGeometry width="60" height="60" as="geometry" />
        </mxCell>
        <mxCell id="cvLDwklnUyzjiHEsLTep-294" value="人力&lt;br&gt;系统" style="whiteSpace=wrap;html=1;labelBackgroundColor=none;fontFamily=Comic Sans MS;fillColor=#ffe6cc;strokeColor=#d79b00;align=center;" vertex="1" parent="cvLDwklnUyzjiHEsLTep-292">
          <mxGeometry x="10" y="10" width="40" height="40" as="geometry" />
        </mxCell>
        <mxCell id="cvLDwklnUyzjiHEsLTep-295" value="" style="group" vertex="1" connectable="0" parent="1">
          <mxGeometry x="1401.5" y="610" width="60" height="60" as="geometry" />
        </mxCell>
        <mxCell id="cvLDwklnUyzjiHEsLTep-296" value="" style="outlineConnect=0;fontColor=#232F3E;gradientColor=none;fillColor=#D86613;strokeColor=none;dashed=0;verticalLabelPosition=bottom;verticalAlign=top;align=center;html=1;fontSize=12;fontStyle=0;aspect=fixed;pointerEvents=1;shape=mxgraph.aws4.instance2;labelBackgroundColor=none;" vertex="1" parent="cvLDwklnUyzjiHEsLTep-295">
          <mxGeometry width="60" height="60" as="geometry" />
        </mxCell>
        <mxCell id="cvLDwklnUyzjiHEsLTep-297" value="OA" style="whiteSpace=wrap;html=1;labelBackgroundColor=none;fontFamily=Comic Sans MS;fillColor=#ffe6cc;strokeColor=#d79b00;align=center;" vertex="1" parent="cvLDwklnUyzjiHEsLTep-295">
          <mxGeometry x="10" y="10" width="40" height="40" as="geometry" />
        </mxCell>
        <mxCell id="cvLDwklnUyzjiHEsLTep-298" value="" style="group" vertex="1" connectable="0" parent="1">
          <mxGeometry x="1550.5" y="618" width="60" height="60" as="geometry" />
        </mxCell>
        <mxCell id="cvLDwklnUyzjiHEsLTep-299" value="" style="outlineConnect=0;fontColor=#232F3E;gradientColor=none;fillColor=#D86613;strokeColor=none;dashed=0;verticalLabelPosition=bottom;verticalAlign=top;align=center;html=1;fontSize=12;fontStyle=0;aspect=fixed;pointerEvents=1;shape=mxgraph.aws4.instance2;labelBackgroundColor=none;" vertex="1" parent="cvLDwklnUyzjiHEsLTep-298">
          <mxGeometry width="60" height="60" as="geometry" />
        </mxCell>
        <mxCell id="cvLDwklnUyzjiHEsLTep-300" value="投资报表系统" style="whiteSpace=wrap;html=1;labelBackgroundColor=none;fontFamily=Comic Sans MS;fillColor=#ffe6cc;strokeColor=#d79b00;align=center;" vertex="1" parent="cvLDwklnUyzjiHEsLTep-298">
          <mxGeometry x="10" y="10" width="40" height="40" as="geometry" />
        </mxCell>
        <mxCell id="cvLDwklnUyzjiHEsLTep-301" value="" style="group" vertex="1" connectable="0" parent="1">
          <mxGeometry x="1622.5" y="618" width="60" height="60" as="geometry" />
        </mxCell>
        <mxCell id="cvLDwklnUyzjiHEsLTep-302" value="" style="outlineConnect=0;fontColor=#232F3E;gradientColor=none;fillColor=#D86613;strokeColor=none;dashed=0;verticalLabelPosition=bottom;verticalAlign=top;align=center;html=1;fontSize=12;fontStyle=0;aspect=fixed;pointerEvents=1;shape=mxgraph.aws4.instance2;labelBackgroundColor=none;" vertex="1" parent="cvLDwklnUyzjiHEsLTep-301">
          <mxGeometry width="60" height="60" as="geometry" />
        </mxCell>
        <mxCell id="cvLDwklnUyzjiHEsLTep-303" value="投资管理系统" style="whiteSpace=wrap;html=1;labelBackgroundColor=none;fontFamily=Comic Sans MS;fillColor=#ffe6cc;strokeColor=#d79b00;align=center;" vertex="1" parent="cvLDwklnUyzjiHEsLTep-301">
          <mxGeometry x="10" y="10" width="40" height="40" as="geometry" />
        </mxCell>
        <mxCell id="cvLDwklnUyzjiHEsLTep-304" value="" style="group" vertex="1" connectable="0" parent="1">
          <mxGeometry x="1719.5" y="611" width="60" height="60" as="geometry" />
        </mxCell>
        <mxCell id="cvLDwklnUyzjiHEsLTep-305" value="" style="outlineConnect=0;fontColor=#232F3E;gradientColor=none;fillColor=#D86613;strokeColor=none;dashed=0;verticalLabelPosition=bottom;verticalAlign=top;align=center;html=1;fontSize=12;fontStyle=0;aspect=fixed;pointerEvents=1;shape=mxgraph.aws4.instance2;labelBackgroundColor=none;" vertex="1" parent="cvLDwklnUyzjiHEsLTep-304">
          <mxGeometry width="60" height="60" as="geometry" />
        </mxCell>
        <mxCell id="cvLDwklnUyzjiHEsLTep-306" value="反洗钱系统" style="whiteSpace=wrap;html=1;labelBackgroundColor=none;fontFamily=Comic Sans MS;fillColor=#ffe6cc;strokeColor=#d79b00;align=center;" vertex="1" parent="cvLDwklnUyzjiHEsLTep-304">
          <mxGeometry x="10" y="10" width="40" height="40" as="geometry" />
        </mxCell>
        <mxCell id="cvLDwklnUyzjiHEsLTep-307" value="" style="group" vertex="1" connectable="0" parent="1">
          <mxGeometry x="1789.5" y="611" width="60" height="60" as="geometry" />
        </mxCell>
        <mxCell id="cvLDwklnUyzjiHEsLTep-308" value="" style="outlineConnect=0;fontColor=#232F3E;gradientColor=none;fillColor=#D86613;strokeColor=none;dashed=0;verticalLabelPosition=bottom;verticalAlign=top;align=center;html=1;fontSize=12;fontStyle=0;aspect=fixed;pointerEvents=1;shape=mxgraph.aws4.instance2;labelBackgroundColor=none;" vertex="1" parent="cvLDwklnUyzjiHEsLTep-307">
          <mxGeometry width="60" height="60" as="geometry" />
        </mxCell>
        <mxCell id="cvLDwklnUyzjiHEsLTep-309" value="风险管理系统" style="whiteSpace=wrap;html=1;labelBackgroundColor=none;fontFamily=Comic Sans MS;fillColor=#ffe6cc;strokeColor=#d79b00;align=center;" vertex="1" parent="cvLDwklnUyzjiHEsLTep-307">
          <mxGeometry x="10" y="10" width="40" height="40" as="geometry" />
        </mxCell>
        <mxCell id="cvLDwklnUyzjiHEsLTep-310" value="" style="group" vertex="1" connectable="0" parent="1">
          <mxGeometry x="1469.5" y="610" width="60" height="60" as="geometry" />
        </mxCell>
        <mxCell id="cvLDwklnUyzjiHEsLTep-311" value="" style="outlineConnect=0;fontColor=#232F3E;gradientColor=none;fillColor=#D86613;strokeColor=none;dashed=0;verticalLabelPosition=bottom;verticalAlign=top;align=center;html=1;fontSize=12;fontStyle=0;aspect=fixed;pointerEvents=1;shape=mxgraph.aws4.instance2;labelBackgroundColor=none;" vertex="1" parent="cvLDwklnUyzjiHEsLTep-310">
          <mxGeometry width="60" height="60" as="geometry" />
        </mxCell>
        <mxCell id="cvLDwklnUyzjiHEsLTep-312" value="电子印章系统" style="whiteSpace=wrap;html=1;labelBackgroundColor=none;fontFamily=Comic Sans MS;fillColor=#ffe6cc;strokeColor=#d79b00;align=center;" vertex="1" parent="cvLDwklnUyzjiHEsLTep-310">
          <mxGeometry x="10" y="10" width="40" height="40" as="geometry" />
        </mxCell>
        <mxCell id="cvLDwklnUyzjiHEsLTep-313" value="&lt;font style=&quot;font-size: 18px&quot;&gt;&lt;b&gt;基础软件&lt;/b&gt;&lt;/font&gt;" style="points=[[0,0],[0.25,0],[0.5,0],[0.75,0],[1,0],[1,0.25],[1,0.5],[1,0.75],[1,1],[0.75,1],[0.5,1],[0.25,1],[0,1],[0,0.75],[0,0.5],[0,0.25]];outlineConnect=0;gradientColor=none;html=1;whiteSpace=wrap;fontSize=12;fontStyle=0;shape=mxgraph.aws4.group;grIcon=mxgraph.aws4.group_on_premise;strokeColor=#5A6C86;fillColor=none;verticalAlign=top;align=center;spacingLeft=30;fontColor=#5A6C86;dashed=0;labelBackgroundColor=none;" vertex="1" parent="1">
          <mxGeometry x="1060" y="730" width="820" height="130" as="geometry" />
        </mxCell>
        <mxCell id="cvLDwklnUyzjiHEsLTep-314" value="" style="group" vertex="1" connectable="0" parent="1">
          <mxGeometry x="1170" y="780" width="60" height="60" as="geometry" />
        </mxCell>
        <mxCell id="cvLDwklnUyzjiHEsLTep-315" value="" style="outlineConnect=0;fontColor=#232F3E;gradientColor=none;fillColor=#D86613;strokeColor=none;dashed=0;verticalLabelPosition=bottom;verticalAlign=top;align=center;html=1;fontSize=12;fontStyle=0;aspect=fixed;pointerEvents=1;shape=mxgraph.aws4.instance2;labelBackgroundColor=none;" vertex="1" parent="cvLDwklnUyzjiHEsLTep-314">
          <mxGeometry width="60" height="60" as="geometry" />
        </mxCell>
        <mxCell id="cvLDwklnUyzjiHEsLTep-316" value="电子发票系统" style="whiteSpace=wrap;html=1;labelBackgroundColor=none;fontFamily=Comic Sans MS;fillColor=#ffe6cc;strokeColor=#d79b00;align=center;" vertex="1" parent="cvLDwklnUyzjiHEsLTep-314">
          <mxGeometry x="10" y="10" width="40" height="40" as="geometry" />
        </mxCell>
        <mxCell id="cvLDwklnUyzjiHEsLTep-317" value="" style="group" vertex="1" connectable="0" parent="1">
          <mxGeometry x="1273" y="780" width="60" height="60" as="geometry" />
        </mxCell>
        <mxCell id="cvLDwklnUyzjiHEsLTep-318" value="" style="outlineConnect=0;fontColor=#232F3E;gradientColor=none;fillColor=#D86613;strokeColor=none;dashed=0;verticalLabelPosition=bottom;verticalAlign=top;align=center;html=1;fontSize=12;fontStyle=0;aspect=fixed;pointerEvents=1;shape=mxgraph.aws4.instance2;labelBackgroundColor=none;" vertex="1" parent="cvLDwklnUyzjiHEsLTep-317">
          <mxGeometry width="60" height="60" as="geometry" />
        </mxCell>
        <mxCell id="cvLDwklnUyzjiHEsLTep-319" value="邮件群发系统" style="whiteSpace=wrap;html=1;labelBackgroundColor=none;fontFamily=Comic Sans MS;fillColor=#ffe6cc;strokeColor=#d79b00;align=center;" vertex="1" parent="cvLDwklnUyzjiHEsLTep-317">
          <mxGeometry x="10" y="10" width="40" height="40" as="geometry" />
        </mxCell>
        <mxCell id="cvLDwklnUyzjiHEsLTep-320" value="" style="group" vertex="1" connectable="0" parent="1">
          <mxGeometry x="1383" y="780" width="60" height="60" as="geometry" />
        </mxCell>
        <mxCell id="cvLDwklnUyzjiHEsLTep-321" value="" style="outlineConnect=0;fontColor=#232F3E;gradientColor=none;fillColor=#D86613;strokeColor=none;dashed=0;verticalLabelPosition=bottom;verticalAlign=top;align=center;html=1;fontSize=12;fontStyle=0;aspect=fixed;pointerEvents=1;shape=mxgraph.aws4.instance2;labelBackgroundColor=none;" vertex="1" parent="cvLDwklnUyzjiHEsLTep-320">
          <mxGeometry width="60" height="60" as="geometry" />
        </mxCell>
        <mxCell id="cvLDwklnUyzjiHEsLTep-322" value="电子签名系统" style="whiteSpace=wrap;html=1;labelBackgroundColor=none;fontFamily=Comic Sans MS;fillColor=#ffe6cc;strokeColor=#d79b00;align=center;" vertex="1" parent="cvLDwklnUyzjiHEsLTep-320">
          <mxGeometry x="10" y="10" width="40" height="40" as="geometry" />
        </mxCell>
        <mxCell id="cvLDwklnUyzjiHEsLTep-323" value="" style="group" vertex="1" connectable="0" parent="1">
          <mxGeometry x="1483" y="780" width="60" height="60" as="geometry" />
        </mxCell>
        <mxCell id="cvLDwklnUyzjiHEsLTep-324" value="" style="outlineConnect=0;fontColor=#232F3E;gradientColor=none;fillColor=#D86613;strokeColor=none;dashed=0;verticalLabelPosition=bottom;verticalAlign=top;align=center;html=1;fontSize=12;fontStyle=0;aspect=fixed;pointerEvents=1;shape=mxgraph.aws4.instance2;labelBackgroundColor=none;" vertex="1" parent="cvLDwklnUyzjiHEsLTep-323">
          <mxGeometry width="60" height="60" as="geometry" />
        </mxCell>
        <mxCell id="cvLDwklnUyzjiHEsLTep-325" value="电子签章系统" style="whiteSpace=wrap;html=1;labelBackgroundColor=none;fontFamily=Comic Sans MS;fillColor=#ffe6cc;strokeColor=#d79b00;align=center;" vertex="1" parent="cvLDwklnUyzjiHEsLTep-323">
          <mxGeometry x="10" y="10" width="40" height="40" as="geometry" />
        </mxCell>
        <mxCell id="cvLDwklnUyzjiHEsLTep-326" value="" style="group" vertex="1" connectable="0" parent="1">
          <mxGeometry x="1583" y="780" width="60" height="60" as="geometry" />
        </mxCell>
        <mxCell id="cvLDwklnUyzjiHEsLTep-327" value="" style="outlineConnect=0;fontColor=#232F3E;gradientColor=none;fillColor=#D86613;strokeColor=none;dashed=0;verticalLabelPosition=bottom;verticalAlign=top;align=center;html=1;fontSize=12;fontStyle=0;aspect=fixed;pointerEvents=1;shape=mxgraph.aws4.instance2;labelBackgroundColor=none;" vertex="1" parent="cvLDwklnUyzjiHEsLTep-326">
          <mxGeometry width="60" height="60" as="geometry" />
        </mxCell>
        <mxCell id="cvLDwklnUyzjiHEsLTep-328" value="短信平台系统" style="whiteSpace=wrap;html=1;labelBackgroundColor=none;fontFamily=Comic Sans MS;fillColor=#ffe6cc;strokeColor=#d79b00;align=center;" vertex="1" parent="cvLDwklnUyzjiHEsLTep-326">
          <mxGeometry x="10" y="10" width="40" height="40" as="geometry" />
        </mxCell>
        <mxCell id="cvLDwklnUyzjiHEsLTep-329" value="" style="group" vertex="1" connectable="0" parent="1">
          <mxGeometry x="1693" y="780" width="60" height="60" as="geometry" />
        </mxCell>
        <mxCell id="cvLDwklnUyzjiHEsLTep-330" value="" style="outlineConnect=0;fontColor=#232F3E;gradientColor=none;fillColor=#D86613;strokeColor=none;dashed=0;verticalLabelPosition=bottom;verticalAlign=top;align=center;html=1;fontSize=12;fontStyle=0;aspect=fixed;pointerEvents=1;shape=mxgraph.aws4.instance2;labelBackgroundColor=none;" vertex="1" parent="cvLDwklnUyzjiHEsLTep-329">
          <mxGeometry width="60" height="60" as="geometry" />
        </mxCell>
        <mxCell id="cvLDwklnUyzjiHEsLTep-331" value="电子邮件系统" style="whiteSpace=wrap;html=1;labelBackgroundColor=none;fontFamily=Comic Sans MS;fillColor=#ffe6cc;strokeColor=#d79b00;align=center;" vertex="1" parent="cvLDwklnUyzjiHEsLTep-329">
          <mxGeometry x="10" y="10" width="40" height="40" as="geometry" />
        </mxCell>
        <mxCell id="cvLDwklnUyzjiHEsLTep-203" value="" style="outlineConnect=0;fontColor=#232F3E;gradientColor=none;fillColor=#D86613;strokeColor=none;dashed=0;verticalLabelPosition=bottom;verticalAlign=top;align=center;html=1;fontSize=12;fontStyle=0;aspect=fixed;pointerEvents=1;shape=mxgraph.aws4.instance2;labelBackgroundColor=none;" vertex="1" parent="1">
          <mxGeometry x="2160.5" y="390" width="60" height="60" as="geometry" />
        </mxCell>
        <mxCell id="cvLDwklnUyzjiHEsLTep-204" value="中介" style="whiteSpace=wrap;html=1;labelBackgroundColor=none;fontFamily=Comic Sans MS;fillColor=#ffe6cc;strokeColor=#d79b00;" vertex="1" parent="1">
          <mxGeometry x="2170.5" y="400" width="40" height="40" as="geometry" />
        </mxCell>
        <mxCell id="cvLDwklnUyzjiHEsLTep-205" value="" style="group" vertex="1" connectable="0" parent="1">
          <mxGeometry x="2160" y="320" width="60" height="60" as="geometry" />
        </mxCell>
        <mxCell id="cvLDwklnUyzjiHEsLTep-206" value="" style="outlineConnect=0;fontColor=#232F3E;gradientColor=none;fillColor=#D86613;strokeColor=none;dashed=0;verticalLabelPosition=bottom;verticalAlign=top;align=center;html=1;fontSize=12;fontStyle=0;aspect=fixed;pointerEvents=1;shape=mxgraph.aws4.instance2;labelBackgroundColor=none;" vertex="1" parent="cvLDwklnUyzjiHEsLTep-205">
          <mxGeometry width="60" height="60" as="geometry" />
        </mxCell>
        <mxCell id="cvLDwklnUyzjiHEsLTep-207" value="银保" style="whiteSpace=wrap;html=1;labelBackgroundColor=none;fontFamily=Comic Sans MS;fillColor=#ffe6cc;strokeColor=#d79b00;" vertex="1" parent="cvLDwklnUyzjiHEsLTep-205">
          <mxGeometry x="10" y="10" width="40" height="40" as="geometry" />
        </mxCell>
        <mxCell id="cvLDwklnUyzjiHEsLTep-334" value="前&lt;br&gt;置业务平台" style="text;html=1;resizable=0;autosize=1;align=center;verticalAlign=middle;points=[];fillColor=none;strokeColor=none;rounded=0;" vertex="1" parent="1">
          <mxGeometry x="625" y="220" width="80" height="30" as="geometry" />
        </mxCell>
      </root>
    </mxGraphModel>
  </diagram>
</mxfile>
